<?xml version="1.0" encoding="utf-8"?>
<!-- Generator: Adobe Illustrator 24.2.3, SVG Export Plug-In . SVG Version: 6.00 Build 0)  -->
<svg version="1.1" id="Layer_1" xmlns="http://www.w3.org/2000/svg" xmlns:xlink="http://www.w3.org/1999/xlink" x="0px" y="0px"
	 viewBox="0 0 600 840" style="enable-background:new 0 0 600 840;" xml:space="preserve">
<style type="text/css">
	.st0{fill:#262626;}
	.st1{fill:#2C2C2C;}
	.st2{fill:#323232;}
</style>
<rect class="st0" width="600" height="840"/>
<g>
	<g>
		<path class="st1" d="M238.8,304.2c39.6,27.8,98.4,50.1,151.7,69c-52.2-16.1-107.7-18-160.8-5.5c-27.7-15.1-48.8-29.5-63.5-43.3
			C189.7,315.1,214,308.3,238.8,304.2"/>
	</g>
	<g>
		<path class="st2" d="M165.3,321.7c-5.9-18.2-11-36.9-15.3-56.1c18.7-6.9,37.8-12.4,57.2-16.6c61.1-13.2,124.3-13.2,185.3,0
			c19.4,4.2,38.5,9.8,57.2,16.6c-4.3,19.2-9.4,38-15.3,56.1l-0.9,2.6c-86-33.6-181.5-33.6-267.5,0L165.3,321.7z"/>
	</g>
	<g>
		<path class="st2" d="M411.9,380.7c-7.3,16.4-15.3,32.2-23.9,47.3l-3.9,6.8c-54.4-19.8-114-19.8-168.4,0l-3.9-6.8
			c-8.6-15.1-16.6-30.8-23.9-47.3C259.9,352.4,339.9,352.4,411.9,380.7"/>
	</g>
	<g>
		<path class="st1" d="M277,420.9c18.2,27.7,39.3,53.3,63,76.6c-12.4,14.9-25.7,28.8-40.1,41.8c-14.7-13.3-28.3-27.6-40.9-42.8
			c-5-6-9.9-12.2-14.6-18.6c-5.9-7.9-11.7-16.2-17.2-24.7c-3.9-6-7.7-12.2-11.4-18.4C235.5,427.4,256.1,422.8,277,420.9"/>
	</g>
</g>
</svg>
